<svg width="26" height="29" viewBox="0 0 26 29" fill="none" xmlns="http://www.w3.org/2000/svg">
<path fill-rule="evenodd" clip-rule="evenodd" d="M10.5127 25.808C11.2034 26.5774 12.09 27 13.01 27H13.0114C13.9354 27 14.826 26.5774 15.518 25.8067C15.8887 25.3974 16.5207 25.364 16.93 25.7334C17.3407 26.1027 17.374 26.736 17.0047 27.1454C15.9274 28.3414 14.51 29 13.0114 29H13.0087C11.514 28.9987 10.0994 28.34 9.02604 27.144C8.6567 26.7347 8.69004 26.1014 9.1007 25.7334C9.51137 25.3627 10.1434 25.396 10.5127 25.808ZM13.0764 0.333374C19.0031 0.333374 22.9844 4.94937 22.9844 9.26004C22.9844 11.4774 23.5484 12.4174 24.1471 13.4147C24.7391 14.3987 25.4098 15.516 25.4098 17.628C24.9444 23.024 19.3111 23.464 13.0764 23.464C6.84177 23.464 1.20711 23.024 0.747088 17.7134C0.743106 15.516 1.41377 14.3987 2.00577 13.4147L2.21476 13.0629C2.72934 12.1785 3.16844 11.2165 3.16844 9.26004C3.16844 4.94937 7.14977 0.333374 13.0764 0.333374ZM13.0764 2.33337C8.41644 2.33337 5.16844 5.98404 5.16844 9.26004C5.16844 12.032 4.39911 13.3134 3.71911 14.444C3.17377 15.352 2.74311 16.0694 2.74311 17.628C2.96577 20.1427 4.62577 21.464 13.0764 21.464C21.4804 21.464 23.1924 20.084 23.4138 17.5414C23.4098 16.0694 22.9791 15.352 22.4338 14.444C21.7538 13.3134 20.9844 12.032 20.9844 9.26004C20.9844 5.98404 17.7364 2.33337 13.0764 2.33337Z" fill="#08080A"/>
</svg>
