<svg width="16" height="16" viewBox="0 0 16 16" fill="none" xmlns="http://www.w3.org/2000/svg">
<path d="M11.8794 7.5C11.8794 7.40625 11.8169 7.3125 11.7544 7.25C11.6919 7.1875 11.5981 7.125 11.5044 7.125H8.7544V4.375C8.7544 4.28125 8.6919 4.1875 8.6294 4.125C8.5669 4.0625 8.47315 4 8.3794 4H7.3794C7.2544 4 7.16065 4.0625 7.09815 4.125C7.03565 4.1875 7.0044 4.28125 7.0044 4.375V7.125H4.2544C4.1294 7.125 4.03565 7.1875 3.97315 7.25C3.91065 7.3125 3.8794 7.40625 3.8794 7.5V8.5C3.8794 8.625 3.91065 8.71875 3.97315 8.78125C4.03565 8.84375 4.1294 8.875 4.2544 8.875H7.0044V11.625C7.0044 11.75 7.03565 11.8438 7.09815 11.9062C7.16065 11.9688 7.2544 12 7.3794 12H8.3794C8.47315 12 8.5669 11.9688 8.6294 11.9062C8.6919 11.8438 8.7544 11.75 8.7544 11.625V8.875H11.5044C11.5981 8.875 11.6919 8.84375 11.7544 8.78125C11.8169 8.71875 11.8794 8.625 11.8794 8.5V7.5ZM15.6294 8C15.6294 6.625 15.2544 5.3125 14.5669 4.125C13.8794 2.9375 12.9419 2 11.7544 1.3125C10.5669 0.625 9.2544 0.25 7.8794 0.25C6.47315 0.25 5.1919 0.625 4.0044 1.3125C2.8169 2 1.84815 2.9375 1.16065 4.125C0.473147 5.3125 0.129397 6.625 0.129397 8C0.129397 9.40625 0.473147 10.6875 1.16065 11.875C1.84815 13.0625 2.8169 14.0312 4.0044 14.7188C5.1919 15.4062 6.47315 15.75 7.8794 15.75C9.2544 15.75 10.5669 15.4062 11.7544 14.7188C12.9419 14.0312 13.8794 13.0625 14.5669 11.875C15.2544 10.6875 15.6294 9.40625 15.6294 8ZM14.1294 8C14.1294 9.125 13.8481 10.1875 13.2856 11.125C12.7231 12.0938 11.9419 12.8438 11.0044 13.4062C10.0356 13.9688 9.0044 14.25 7.8794 14.25C6.7544 14.25 5.6919 13.9688 4.7544 13.4062C3.78565 12.8438 3.03565 12.0938 2.47315 11.125C1.91065 10.1875 1.6294 9.125 1.6294 8C1.6294 6.875 1.91065 5.84375 2.47315 4.875C3.03565 3.9375 3.78565 3.15625 4.7544 2.59375C5.6919 2.03125 6.7544 1.75 7.8794 1.75C9.0044 1.75 10.0356 2.03125 11.0044 2.59375C11.9419 3.15625 12.7231 3.9375 13.2856 4.875C13.8481 5.84375 14.1294 6.875 14.1294 8Z" fill="#4D7CF3"/>
</svg>
